<?xml version="1.0" encoding="UTF-8"?>
<svg width="522px" height="443px" viewBox="0 0 522 443" version="1.1" xmlns="http://www.w3.org/2000/svg" xmlns:xlink="http://www.w3.org/1999/xlink">
    <!-- Generator: Sketch 52.5 (67469) - http://www.bohemiancoding.com/sketch -->
    <title>Group 4</title>
    <desc>Created with Sketch.</desc>
    <defs>
        <path d="M5.54773215,2.74975462 L23.5090111,2.71443461 C24.6135785,2.71226253 25.5107681,3.60593048 25.5129402,4.71049784 C25.5129453,4.71313266 25.5129453,4.71576748 25.5129401,4.7184023 L25.448331,37.2542208 C25.4461437,38.3557025 24.5537496,39.2480794 23.4522678,39.2502454 L5.49098887,39.2855654 C4.3864215,39.2877375 3.48923191,38.3940695 3.48705983,37.2895022 C3.48705465,37.2868673 3.48705468,37.2842325 3.48705991,37.2815977 L3.551669,4.74577919 C3.5538563,3.64429749 4.44625041,2.75192063 5.54773215,2.74975462 Z" id="path-1"></path>
        <filter x="-31.8%" y="-13.7%" width="163.6%" height="138.3%" filterUnits="objectBoundingBox" id="filter-2">
            <feOffset dx="0" dy="2" in="SourceAlpha" result="shadowOffsetOuter1"></feOffset>
            <feGaussianBlur stdDeviation="2" in="shadowOffsetOuter1" result="shadowBlurOuter1"></feGaussianBlur>
            <feColorMatrix values="0 0 0 0 0   0 0 0 0 0   0 0 0 0 0  0 0 0 0.219570879 0" type="matrix" in="shadowBlurOuter1"></feColorMatrix>
        </filter>
    </defs>
    <g id="Page-1" stroke="none" stroke-width="1" fill="none" fill-rule="evenodd">
        <g id="Artboard" transform="translate(-813.000000, -183.000000)">
            <g id="Group-4" transform="translate(764.000000, 190.000000)">
                <g id="Group-3" transform="translate(332.329164, 217.235136) rotate(-18.000000) translate(-332.329164, -217.235136) translate(317.829164, 196.235136)">
                    <rect id="Rectangle" fill="#FFFFFF" x="0.584951783" y="3.93426282" width="22" height="37" rx="2"></rect>
                    <g id="Rectangle" transform="translate(14.500000, 21.000000) rotate(11.000000) translate(-14.500000, -21.000000) ">
                        <use fill="black" fill-opacity="1" filter="url(#filter-2)" xlink:href="#path-1"></use>
                        <use fill="#FFFFFF" fill-rule="evenodd" xlink:href="#path-1"></use>
                    </g>
                </g>
                <g id="Group-2" transform="translate(290.000000, 0.000000)">
                    <g id="Head/Front/Airy" transform="translate(142.461424, 52.175676) scale(-1, 1) translate(-142.461424, -52.175676) translate(74.133531, 0.000000)">
                        <g id="Head" stroke-width="1" transform="translate(54.397059, 31.000000)" fill="#B28B67">
                            <path d="M8.32302589,34.4901268 C3.68123468,29.0813759 0.539573285,22.4528771 1.06454675,15.0254539 C2.57714147,-6.37502057 32.5863875,-1.66718886 38.4238071,9.13393292 C44.2612268,19.9350547 43.5675896,47.3329958 36.0232448,49.2634576 C33.0145705,50.033323 26.6051997,48.1474609 20.0819556,44.244306 L24.1764706,73 L0,73 L8.32302589,34.4901268 Z"></path>
                        </g>
                        <path d="M79.0408908,27.6852568 C75.854502,27.1665378 67.2750096,26.8099042 65.6927979,26.8101344 C64.68169,26.8101344 63.585957,27.0394482 62.9871073,26.1178184 C62.496698,25.3631089 62.6763529,24.0866873 62.5299931,23.2108742 C62.3600493,22.1934668 62.1186597,21.1891827 61.8744955,20.1874312 C61.1796912,17.3368945 60.1290453,14.6249591 58.6589734,12.0787928 C55.9005656,7.30188179 51.8596021,3.56010629 46.7580504,1.38277606 C41.1244706,-1.02133542 34.749612,-1.57182675 28.6899009,-1.08418951 C22.2052146,-0.562477519 16.3351007,1.56258942 10.2124988,3.56240864 C4.37799218,5.46806184 -1.73304889,6.21816672 -7.83530375,5.28755777 C-13.9835706,4.35004179 -18.6291642,1.0420286 -23.8151097,-2.09768297 C-29.1240622,-5.31199061 -35.1911722,-7.4142643 -41.4673015,-6.93100152 C-47.3258546,-6.47974137 -52.7254438,-4.0783927 -57.5698832,-0.870531642 C-62.1024121,2.13080883 -65.8423322,5.74181098 -67.9537975,10.8240133 C-70.2252643,16.2909379 -70.2231833,22.291777 -66.4878875,27.1232537 C-61.0737317,34.1265349 -51.0225374,35.9375616 -42.6603765,35.7575181 C-37.8235673,35.6536822 -33.0732329,34.7771784 -28.5067152,33.1828026 C-22.4167148,31.0563543 -17.1540055,27.4522592 -11.45661,24.5280473 C-8.78282726,23.1558481 -6.01910142,22.0288489 -3.12219512,21.2170411 C-0.311069983,20.4289475 2.45774261,20.0674789 5.00296925,21.7532579 C7.69548054,23.5366564 10.1082204,25.2885128 13.188481,26.4049212 C16.1434226,27.4759733 19.2733947,28.0750442 22.4216329,28.0508696 C28.5470093,28.0039017 34.5852173,26.1092997 40.5344071,24.8402457 C45.385783,23.8055706 50.5765841,22.7743491 55.5225273,23.7689633 C57.586362,24.1840766 60.6009573,25.0410104 61.346398,27.1702216 C48.8003821,29.4274433 43.8729477,44.8301494 47.4098601,56.1372093 C49.3187801,62.2400423 60.7935603,69.3741897 65.2551059,66.1658382 C68.0816233,64.1332552 66.3656367,61.4648419 65.2551059,59.7033156 C63.1283803,56.3299158 62.4007433,51.9966672 66.336041,49.6480423 C69.7305244,47.6224367 73.2995897,52.4327123 73.3671048,52.4274169 C74.3000617,52.3544325 82.36162,47.8285457 87.9158869,41.224129 C93.3951918,41.5465656 94.2264817,37.9600245 92.918131,35.026908 C91.6097803,32.0937915 83.4434763,28.4024381 79.0408908,27.6852568 Z" id="hair" fill="#191847"></path>
                    </g>
                    <g id="Bottom/Standing/Shorts" transform="translate(150.500000, 309.040541) scale(-1, 1) translate(-150.500000, -309.040541) translate(0.000000, 189.081081)">
                        <polygon id="Leg" fill="#997659" points="128.426667 9.9475983e-14 166.18294 123.538916 184.473021 228.600807 198.813707 228.600807 179.487277 9.9475983e-14"></polygon>
                        <path d="M114.91952,0 C117.484017,67.8295051 114.46595,102.817192 113.891985,108.979798 C113.31802,115.142403 105.458557,155.101067 86.852233,230.669593 L102.133306,225.416936 C131.538866,156.109415 141.559232,120.089071 144.931827,110.988166 C148.304423,101.88726 157.261868,64.8912049 171.804163,0 L114.91952,0 Z" id="Leg" fill="#B28B67"></path>
                        <g id="Accessories/Shoe/Flat-Sneaker" transform="translate(84.280000, 199.832636)" fill="#E4E4E4">
                            <path d="M2.67813181,25.4019242 C1.55937727,28.3884109 1,30.6229931 1,32.1056708 C1,33.908957 1.3004142,36.5404001 1.90124261,40 C3.99318117,40 22.7937852,40 58.3030548,40 C59.768738,35.1545073 58.9226607,32.5385816 55.7648228,32.1522232 C52.606985,31.7658647 49.9837155,31.4170139 47.8950143,31.1056708 L21.6799926,19.4188835 C21.1755635,19.1940064 20.584344,19.4206282 20.359467,19.9250573 C20.35562,19.9336867 20.3518954,19.9423702 20.3482945,19.9511052 L18.6632131,24.038695 C15.7398812,25.4026522 13.3643706,26.0846307 11.5366811,26.0846307 C10.0517269,26.0846307 8.00099246,25.4849054 5.38447792,24.2854549 L5.38448339,24.285443 C4.38038273,23.8251478 3.19325534,24.2659892 2.73296014,25.2700899 C2.71312074,25.3133681 2.69483298,25.3573409 2.67813181,25.4019242 Z" id="shoe"></path>
                        </g>
                        <g id="Accessories/Shoe/Flat-Sneaker" transform="translate(178.593333, 199.832636)" fill="#E4E4E4">
                            <path d="M2.67813181,25.4019242 C1.55937727,28.3884109 1,30.6229931 1,32.1056708 C1,33.908957 1.3004142,36.5404001 1.90124261,40 C3.99318117,40 22.7937852,40 58.3030548,40 C59.768738,35.1545073 58.9226607,32.5385816 55.7648228,32.1522232 C52.606985,31.7658647 49.9837155,31.4170139 47.8950143,31.1056708 L21.6799926,19.4188835 C21.1755635,19.1940064 20.584344,19.4206282 20.359467,19.9250573 C20.35562,19.9336867 20.3518954,19.9423702 20.3482945,19.9511052 L18.6632131,24.038695 C15.7398812,25.4026522 13.3643706,26.0846307 11.5366811,26.0846307 C10.0517269,26.0846307 8.00099246,25.4849054 5.38447792,24.2854549 L5.38448339,24.285443 C4.38038273,23.8251478 3.19325534,24.2659892 2.73296014,25.2700899 C2.71312074,25.3133681 2.69483298,25.3573409 2.67813181,25.4019242 Z" id="shoe"></path>
                        </g>
                        <polygon id="Bottom" fill="#69A1AC" points="123.41 0 139.463333 62.9417775 188.496552 62.9417775 181.1855 0"></polygon>
                        <path d="M114.38,-3.55271368e-15 C109.097891,15.8465735 108.094557,36.827166 111.37,62.9417775 L161.406552,62.9417775 L175.1655,-3.55271368e-15 L114.38,-3.55271368e-15 Z" id="Bottom" fill="#89C5CC"></path>
                    </g>
                    <g id="Body/Turtle-Neck" transform="translate(149.160237, 176.594595) scale(-1, 1) rotate(8.000000) translate(-149.160237, -176.594595) translate(20.543027, 82.945946)">
                        <path d="M200.272394,92.4603344 L228.710954,120.095357 C236.985526,123.611168 243.76536,127.493333 249.050455,131.741853 C250.238993,133.169925 251.532911,135.906184 245.940896,134.681747 C240.348881,133.45731 234.411637,132.419902 233.360628,134.23139 C232.309619,136.042878 235.406503,138.818722 233.464108,141.189494 C232.169178,142.770009 227.814227,137.742701 220.399254,126.10757 L190.826913,108.74029 L200.272394,92.4603344 Z M61.2079552,67.4496834 L83.1908836,67.5318631 C66.4479851,121.56567 57.5603175,149.856914 56.5278809,152.405597 C54.2048986,158.140133 59.1206416,166.873732 61.2228084,171.567103 C54.3761211,174.61887 55.1056429,163.316929 46.4687311,167.319492 C38.5853585,170.972846 32.5884966,177.59248 23.4803986,171.994371 C22.3606115,171.306117 21.1335073,168.714714 24.0983463,166.68967 C31.4848414,161.644547 42.1292285,152.814672 43.5674528,149.908251 C45.5287286,145.944826 51.4088961,118.458637 61.2079552,67.4496834 Z" id="Skin" fill="#B28B67"></path>
                        <path d="M123.267601,9.73046062 L131.786202,7.49634601 C149.605924,54.273117 222.461236,80.8467091 228.326955,98.4026669 C230.478069,104.840901 226.017611,108.580853 228.647145,110.369147 L218.123704,119.54907 C216.026674,117.503386 212.318683,121.90543 203.588223,119.81694 C194.857763,117.728449 128.236862,66.5293672 123.267601,9.73046062 Z" id="Clothes-Back" fill="#DB2721" transform="translate(176.101015, 63.945520) rotate(5.000000) translate(-176.101015, -63.945520) "></path>
                        <path d="M142.796705,11.7102574 C141.786435,75.479095 178.792527,91.7414312 170.550885,117.318245 C163.745905,138.436573 98.6110316,161.138686 87.3398437,140.43774 C82.7774108,132.058262 80.7074162,121.923875 80.4725497,110.905608 C77.5918701,119.370535 75.3135726,126.657823 73.6376547,132.767479 C70.746462,143.30749 59.5379249,144.982871 59.5379249,149.043262 L44.7708355,144.982871 C45.7724524,139.466662 38.8108897,136.780597 40.6774662,124.456905 C49.0408544,69.2393308 71.5118217,29.2139001 108.090368,4.38061262 L108.470574,-1.00966776 C108.625216,-3.212538 110.535746,-4.873335 112.7387,-4.71988887 L112.738851,-4.72205456 L139.809466,-2.83863338 C142.013265,-2.68512835 143.675357,-0.774155621 143.521852,1.42964367 C143.521802,1.43036537 143.521751,1.43108706 143.5217,1.43180873 L142.796705,11.7102574 Z" id="Clothes-Front" fill="#FF4133"></path>
                    </g>
                </g>
                <g id="Group" transform="translate(0.000000, 71.000000)">
                    <g id="Head/Front/Chongo" transform="translate(74.246667, 0.000000)">
                        <g id="Head" stroke-width="1" transform="translate(54.000000, 31.000000)" fill="#B28B67">
                            <path d="M8.26227388,34.4901268 C3.65436435,29.0813759 0.535634794,22.4528771 1.05677633,15.0254539 C2.55833022,-6.37502057 32.3485306,-1.66718886 38.1433414,9.13393292 C43.9381521,19.9350547 43.249578,47.3329958 35.7603014,49.2634576 C32.7735882,50.033323 26.4110012,48.1474609 19.935372,44.244306 L24,73 L0,73 L8.26227388,34.4901268 Z"></path>
                        </g>
                        <path d="M82.6634951,28.3699763 C79.3840534,27.3699763 74.6234565,27.0308443 72.6208149,27.2602642 C73.7600087,24.5308439 74.2120576,21.4899413 73.8435286,18.5290858 C73.4853344,15.6520661 72.1997702,13.2023672 71.0108165,10.6353788 C70.4627695,9.45216518 69.8416903,8.27540043 68.9156982,7.37037661 C67.972405,6.44834378 66.7783223,5.83972796 65.5262119,5.54936581 C64.2448581,5.2521517 62.9050174,5.27689939 61.6216732,5.54662502 C61.0539519,5.66592985 60.5445644,5.92549845 59.9877902,6.0697928 C59.4176191,6.21763405 59.141031,5.86076752 58.7271824,5.50212755 C57.7298424,4.63797369 56.2677456,4.21137833 55.0059895,4.0587004 C53.5903607,3.88748186 52.1214506,4.10102137 50.7713517,4.56639079 C49.457233,5.01942668 48.1947879,5.75508602 47.2446815,6.82681415 C46.8216464,7.30387223 46.4376536,7.8468704 46.188089,8.44637714 C46.0857368,8.69240304 46.0688185,8.83814839 45.8233112,8.9282719 C45.5962532,9.01170466 45.3306889,9.014123 45.0963584,9.0935252 C42.8305256,9.86094542 40.8932607,11.6116631 39.8384289,13.8595111 C39.2230147,15.1708968 38.9314987,17.4797836 39.0113441,20.0676663 C39.0911894,22.655549 41.4279109,29.4080735 43.613439,31.8710732 C45.5642539,34.0695065 48.4317213,35.5202692 51.1990566,36.1553256 C49.36223,38.2548487 48.1395162,40.8784262 47.2353419,43.5466625 C46.2532361,46.4450442 45.6454006,49.4566043 45.4209456,52.525076 C45.2077438,55.4404668 45.187993,58.5235291 45.8714634,61.3766879 C46.5108389,64.0448435 47.8781623,66.233684 50.1607604,67.6222954 C51.2063292,68.2583997 52.331284,68.7362639 53.4627459,69.1730163 C54.5778253,69.6034004 55.6962731,70.021854 56.8643276,70.2633656 C59.0749653,70.7202709 61.6221325,70.641836 63.3249903,68.8822511 C63.9387204,68.2479202 64.6136933,67.450835 65.0614552,66.675918 C65.2224473,66.3972445 65.3195173,66.2149822 65.1239229,65.9425963 C64.8895924,65.6163621 64.5105756,65.3663863 64.2095669,65.1111707 C62.493006,63.6560549 61.4304424,61.7134822 61.1625814,59.4049338 C60.8908162,57.0626093 61.5200101,54.03928 63.7973259,53.0170472 C66.6084499,51.7551569 69.7042766,53.2035819 72.2028323,54.5537417 C73.264707,50.805958 75.4450295,47.4314855 78.8633764,45.7123675 C82.6451998,43.8105035 86.9847925,43.5879355 90.871188,41.9561196 C91.8839153,41.5308947 92.9153983,41.0481938 93.6610301,40.1817828 C93.9726032,39.8196765 94.3381465,39.3499541 94.4625461,38.871042 C94.625988,38.2419509 94.220254,37.7145107 93.9068437,37.2240711 C92.2450186,34.623629 85.9429367,29.3699763 82.6634951,28.3699763 Z" id="hair" fill="#191847"></path>
                    </g>
                    <g id="Bottom/Sitting/Sweat-Pants" transform="translate(0.000000, 188.880562)">
                        <g id="Objects/Seat/Ball" transform="translate(10.033333, 42.175732)" fill="#C5CFD6">
                            <ellipse id="Ballsy-Ball" cx="116.5" cy="58.9717742" rx="77.3318966" ry="74.0927419"></ellipse>
                        </g>
                        <path d="M272.414284,163.340434 C259.55879,134.863476 250.261826,110.066893 246.530059,96.9841571 C240.140369,74.5833367 235.279476,54.8719228 234.050905,47.510738 C231.121219,29.9570487 256.587726,28.9348623 259.953863,37.6587401 C265.048646,50.8626755 273.942983,94.2452972 284.630208,159.773132 L272.414284,163.340434 Z M123.297974,73.9717571 C135.092876,69.3056002 176.397995,54.7028086 196.319454,50.571946 C202.044083,49.3849018 207.59256,48.2820038 212.809102,47.2852907 C228.314511,44.3227065 236.347768,72.3187564 221.414168,74.4698467 C184.223601,79.8269116 131.499692,85.3589517 126.987678,85.9797732 C120.663897,86.849881 115.885246,76.9042912 123.297974,73.9717571 Z" id="Skin" fill="#B28B67"></path>
                        <path d="M222.325745,39.581179 L158.526667,7.07620159 L158.526667,0 L166.11406,0 C227.836809,15.741311 259.377084,25.8292917 260.734884,30.263942 C260.749492,30.3116537 260.762886,30.3594278 260.775065,30.4072645 C260.806128,30.4480691 260.836664,30.4891205 260.866667,30.5304184 C273.098811,47.3673899 280.424593,129.566827 282.829047,135.721643 L259.389489,139.221467 C250.423236,105.944732 221.736667,82.7629464 222.498686,42.907793 C222.292924,41.7386868 222.240933,40.6299884 222.325745,39.581179 Z" id="Leg-Back" fill="#1F28CF"></path>
                        <path d="M163.827451,58.8858338 C157.989983,57.7163091 152.614303,56.6725264 148.014447,55.8650302 C118.302321,50.6491212 109.638012,34.7309627 114.760814,4.81529037e-14 L169.504902,-4.97379915e-14 C178.447442,2.5710307 224.921283,22.0768244 249.033977,32.4515518 C264.992994,39.318078 259.962192,64.0714446 250.924594,70.5132873 C250.875517,70.9084819 250.71287,71.1769261 250.423236,71.2970711 C201.807323,91.4637516 163.347674,80.8823459 150.5,84.2632643 L144.557377,65.5013386 L163.827451,58.8858338 Z" id="Leg-Front" fill="#2B44FF"></path>
                        <g id="Accessories/Shoe/Flat-Sneaker" transform="translate(144.439159, 93.722330) rotate(64.000000) translate(-144.439159, -93.722330) translate(113.837492, 73.638648)" fill="#E4E4E4">
                            <path d="M2.67813181,25.4019242 C1.55937727,28.3884109 1,30.6229931 1,32.1056708 C1,33.908957 1.3004142,36.5404001 1.90124261,40 C3.99318117,40 22.7937852,40 58.3030548,40 C59.768738,35.1545073 58.9226607,32.5385816 55.7648228,32.1522232 C52.606985,31.7658647 49.9837155,31.4170139 47.8950143,31.1056708 L21.6799926,19.4188835 C21.1755635,19.1940064 20.584344,19.4206282 20.359467,19.9250573 C20.35562,19.9336867 20.3518954,19.9423702 20.3482945,19.9511052 L18.6632131,24.038695 C15.7398812,25.4026522 13.3643706,26.0846307 11.5366811,26.0846307 C10.0517269,26.0846307 8.00099246,25.4849054 5.38447792,24.2854549 L5.38448339,24.285443 C4.38038273,23.8251478 3.19325534,24.2659892 2.73296014,25.2700899 C2.71312074,25.3133681 2.69483298,25.3573409 2.67813181,25.4019242 Z" id="shoe"></path>
                        </g>
                        <g id="Accessories/Shoe/Flat-Sneaker" transform="translate(263.876667, 132.552301)" fill="#E4E4E4">
                            <path d="M2.67813181,25.4019242 C1.55937727,28.3884109 1,30.6229931 1,32.1056708 C1,33.908957 1.3004142,36.5404001 1.90124261,40 C3.99318117,40 22.7937852,40 58.3030548,40 C59.768738,35.1545073 58.9226607,32.5385816 55.7648228,32.1522232 C52.606985,31.7658647 49.9837155,31.4170139 47.8950143,31.1056708 L21.6799926,19.4188835 C21.1755635,19.1940064 20.584344,19.4206282 20.359467,19.9250573 C20.35562,19.9336867 20.3518954,19.9423702 20.3482945,19.9511052 L18.6632131,24.038695 C15.7398812,25.4026522 13.3643706,26.0846307 11.5366811,26.0846307 C10.0517269,26.0846307 8.00099246,25.4849054 5.38447792,24.2854549 L5.38448339,24.285443 C4.38038273,23.8251478 3.19325534,24.2659892 2.73296014,25.2700899 C2.71312074,25.3133681 2.69483298,25.3573409 2.67813181,25.4019242 Z" id="shoe"></path>
                        </g>
                    </g>
                    <g id="Body/Hoodie" transform="translate(20.066667, 82.384075)">
                        <path d="M191.526444,92.704595 L223.549317,116.253454 C232.23458,118.600416 239.490836,121.520433 245.318086,125.013505 C246.694584,126.269591 248.35821,128.813375 242.649542,128.373745 C236.940873,127.934116 230.916467,127.7288 230.128782,129.678734 C229.341097,131.628668 232.795674,133.960576 231.203419,136.591547 C230.141915,138.345529 225.126947,133.947486 216.158514,123.39742 L184.447468,110.22877 L191.526444,92.704595 Z M68.5747559,93.517324 L89.5537781,93.5999431 C76.6001999,135.476358 69.6071925,157.695721 68.5747559,160.258033 C66.2517736,166.023235 71.1675166,174.803538 73.2696834,179.522007 C66.4229961,182.590094 67.1525179,171.227715 58.5156061,175.251682 C50.6322335,178.924573 44.6353716,185.579605 35.5272736,179.951561 C34.4074865,179.259626 33.1803823,176.654365 36.1452213,174.618492 C43.5317164,169.54639 54.1761035,160.669296 55.6143278,157.747332 C57.5756036,153.762713 61.8957463,132.35271 68.5747559,93.517324 Z" id="Skin" fill="#B28B67"></path>
                        <path d="M123.20375,9.62568645 L131.721659,7.38367064 C166.23624,32.3340907 184.080545,84.506756 225.881638,109.314646 L217.44338,121.893552 C148.473466,119.402881 125.871469,55.8379168 123.20375,9.62568645 Z" id="Coat-Back" fill="#E87613" transform="translate(174.542694, 64.638611) rotate(5.000000) translate(-174.542694, -64.638611) "></path>
                        <path d="M90.3515625,114.609626 C125.158755,114.609626 150.762196,114.609626 167.161886,114.609626 C170.671726,114.609626 170.010364,109.534266 169.502995,106.973212 C163.647348,77.4155511 140.789122,45.553823 140.789122,3.47923688 L118.633409,0 C100.307788,29.5154037 93.9704702,65.8548416 90.3515625,114.609626 Z" id="Shirt" fill="#DDE3E9"></path>
                        <path d="M90.9688055,29.0122791 C87.7509662,28.0859819 85.2027706,25.9255675 83.3242187,22.5310361 C75.2262662,7.89808688 78.1508159,-0.158435528 86.8049589,-2.80665994 C95.459102,-5.45488435 103.176785,-2.08721929e-14 116.965149,-7.10542736e-15 C117.715121,-6.66133815e-15 118.402011,0.0470829756 119.025819,0.141248927 L125.961711,0.537599516 C145.861541,68.0773077 151.349795,113.13875 142.426474,135.721925 L81.9707665,135.721925 C78.3888301,144.086287 74.9612192,151.123721 71.687934,156.834225 L55.2148437,156.834225 C53.6644945,106.634295 65.5824817,64.0269794 90.9688055,29.0122791 Z" id="Coat-Front" fill="#FF9B21"></path>
                        <path d="M95.1354054,101.035055 C97.0367256,116.966184 100.127007,128.528474 104.40625,135.721925 L81.9707665,135.721925 C86.1489951,125.96513 90.537208,114.40284 95.135405,101.035054 Z" id="Shade" fill-opacity="0.1" fill="#000000"></path>
                    </g>
                </g>
            </g>
        </g>
    </g>
</svg>